<svg xmlns="http://www.w3.org/2000/svg" width="1628" height="40" viewBox="0 0 1628 40">
  <desc>img-fullwidth-svg</desc><g data-name="Ebene 2"><g data-name="Ebene 1" fill="#FFFFFF"><path d="M1239 0l-38.7 40H1628V0h-389zM1233.5 0h1.6l-38.5 40h-1.6zm-5.1 0h1.6l-38.5 40h-1.5zM1223.5 0h1.6l-38.5 40h-1.6zm-5.1 0h1.6l-38.5 40h-1.5zM1213.5 0h1.6l-38.5 40h-1.6zm-5.1 0h1.6l-38.5 40h-1.5zM1203.5 0h1.6l-38.5 40h-1.6zm-5.1 0h1.6l-38.5 40h-1.5zM1193.5 0h1.6l-38.5 40h-1.6zm-5.1 0h1.6l-38.5 40h-1.5zM1183.5 0h1.6l-38.5 40h-1.6zm-5.1 0h1.6l-38.5 40h-1.5zM1173.5 0h1.6l-38.5 40h-1.6zm-5.1 0h1.6l-38.5 40h-1.5zM1163.5 0h1.6l-38.5 40h-1.6zm-5.1 0h1.6l-38.5 40h-1.5zM1153.5 0h1.6l-38.5 40h-1.6zm-5.1 0h1.6l-38.5 40h-1.5zM1143.5 0h1.6l-38.5 40h-1.6zm-5.1 0h1.6l-38.5 40h-1.5zM1133.5 0h1.6l-38.5 40h-1.6zm-5.1 0h1.6l-38.5 40h-1.5zM1123.5 0h1.6l-38.5 40h-1.6zm-5.1 0h1.6l-38.5 40h-1.5zM1113.5 0h1.6l-38.5 40h-1.6zm-5.1 0h1.6l-38.5 40h-1.5zM1103.5 0h1.6l-38.5 40h-1.6zm-5.1 0h1.6l-38.5 40h-1.5zM1093.5 0h1.6l-38.5 40h-1.6zm-5.1 0h1.6l-38.5 40h-1.5zM1083.5 0h1.6l-38.5 40h-1.6zm-5.1 0h1.6l-38.5 40h-1.5zM1073.5 0h1.6l-38.5 40h-1.6zm-5.1 0h1.6l-38.5 40h-1.5zM1063.5 0h1.6l-38.5 40h-1.6zm-5.1 0h1.6l-38.5 40h-1.5zM1053.5 0h1.6l-38.5 40h-1.6zm-5.1 0h1.6l-38.5 40h-1.5zM1043.5 0h1.6l-38.5 40h-1.6zm-5.1 0h1.6l-38.5 40h-1.5zM1033.5 0h1.6l-38.4 40h-1.6zm-5.1 0h1.6l-38.4 40H990zM1023.5 0h1.6l-38.4 40h-1.6zm-5.1 0h1.6l-38.4 40H980zM1013.5 0h1.6l-38.4 40h-1.6zm-5.1 0h1.6l-38.4 40H970zM1003.5 0h1.6l-38.4 40h-1.6zm-5.1 0h1.6l-38.4 40H960zM993.5 0h1.6l-38.4 40h-1.6zm-5.1 0h1.6l-38.4 40H950zM983.5 0h1.6l-38.4 40h-1.6zm-5.1 0h1.6l-38.4 40H940zM973.5 0h1.6l-38.4 40h-1.6zm-5.1 0h1.6l-38.4 40H930zM963.5 0h1.6l-38.4 40h-1.6zm-5.1 0h1.6l-38.4 40H920zM953.5 0h1.6l-38.4 40h-1.6zm-5.1 0h1.6l-38.4 40H910zM943.5 0h1.6l-38.4 40h-1.6zm-5.1 0h1.6l-38.4 40H900zM933.5 0h1.6l-38.4 40h-1.6zm-5.1 0h1.6l-38.4 40H890zM923.5 0h1.6l-38.4 40h-1.6zm-5.1 0h1.6l-38.4 40H880zM913.5 0h1.6l-38.4 40h-1.6zm-5.1 0h1.6l-38.4 40H870zM903.5 0h1.6l-38.4 40h-1.6zm-5.1 0h1.6l-38.4 40H860zM893.5 0h1.6l-38.4 40h-1.6zm-5.1 0h1.6l-38.4 40H850zM883.5 0h1.6l-38.4 40h-1.6zm-5.1 0h1.6l-38.4 40H840zM873.5 0h1.6l-38.4 40h-1.6zm-5.1 0h1.6l-38.4 40H830zM863.5 0h1.6l-38.4 40h-1.6zm-5.1 0h1.6l-38.4 40H820zM853.5 0h1.6l-38.4 40h-1.6zm-5.1 0h1.6l-38.4 40H810zM843.5 0h1.6l-38.4 40h-1.6zm-5.1 0h1.6l-38.4 40H800zM833.5 0h1.6l-38.4 40h-1.6zm-5.1 0h1.6l-38.4 40H790zM823.5 0h1.6l-38.4 40h-1.6zm-5.1 0h1.6l-38.4 40H780zM813.5 0h1.6l-38.4 40h-1.6zm-5.1 0h1.6l-38.4 40H770zM803.5 0h1.6l-38.4 40h-1.6zm-5.1 0h1.6l-38.4 40H760zM793.5 0h1.6l-38.4 40h-1.6zm-5.1 0h1.6l-38.4 40H750zM783.5 0h1.6l-38.4 40h-1.6zm-5.1 0h1.6l-38.4 40H740zM773.5 0h1.6l-38.4 40h-1.6zm-5.1 0h1.6l-38.4 40H730zM763.5 0h1.6l-38.4 40h-1.6zm-5.1 0h1.6l-38.4 40H720zM753.5 0h1.6l-38.4 40h-1.6zm-5.1 0h1.6l-38.4 40H710zM743.5 0h1.6l-38.4 40h-1.6zm-5.1 0h1.6l-38.4 40H700zM733.5 0h1.6l-38.4 40h-1.6zm-5.1 0h1.6l-38.4 40H690zM723.5 0h1.6l-38.4 40h-1.6zm-5.1 0h1.6l-38.4 40H680zM713.5 0h1.6l-38.4 40h-1.6zm-5.1 0h1.6l-38.4 40H670zM703.5 0h1.6l-38.4 40h-1.6zm-5.1 0h1.6l-38.4 40H660zM693.5 0h1.6l-38.4 40h-1.6zm-5.1 0h1.6l-38.4 40H650zM683.5 0h1.6l-38.4 40h-1.6zm-5.1 0h1.6l-38.4 40H640zM673.5 0h1.6l-38.4 40h-1.6zm-5.1 0h1.6l-38.4 40H630zM663.5 0h1.6l-38.4 40h-1.6zm-5.1 0h1.6l-38.4 40H620zM653.5 0h1.6l-38.4 40h-1.6zm-5.1 0h1.6l-38.4 40H610zM643.5 0h1.6l-38.4 40h-1.6zm-5.1 0h1.6l-38.4 40H600zM633.5 0h1.6l-38.4 40h-1.6zm-5.1 0h1.6l-38.4 40H590zM623.5 0h1.6l-38.4 40h-1.6zm-5.1 0h1.6l-38.4 40H580zM613.5 0h1.6l-38.4 40h-1.6zm-5.1 0h1.6l-38.4 40H570zM603.5 0h1.6l-38.4 40h-1.6zm-5.1 0h1.6l-38.4 40H560zM593.5 0h1.6l-38.4 40h-1.6zm-5.1 0h1.6l-38.4 40H550zM583.5 0h1.6l-38.4 40h-1.6zm-5.1 0h1.6l-38.4 40H540zM573.5 0h1.6l-38.4 40h-1.6zm-5.1 0h1.6l-38.4 40H530zM563.5 0h1.6l-38.4 40h-1.6zm-5.1 0h1.6l-38.4 40H520zM553.5 0h1.6l-38.4 40h-1.6zm-5.1 0h1.6l-38.4 40H510zM543.5 0h1.6l-38.4 40h-1.6zm-5.1 0h1.6l-38.4 40H500zM533.5 0h1.6l-38.4 40h-1.6zm-5.1 0h1.6l-38.4 40H490zM523.5 0h1.6l-38.4 40h-1.6zm-5.1 0h1.6l-38.4 40H480zM513.5 0h1.6l-38.4 40h-1.6zm-5.1 0h1.6l-38.4 40H470zM503.5 0h1.6l-38.4 40h-1.6zm-5.1 0h1.6l-38.4 40H460zM493.5 0h1.6l-38.4 40h-1.6zm-5.1 0h1.6l-38.4 40H450zM483.5 0h1.6l-38.4 40h-1.6zm-5.1 0h1.6l-38.4 40H440zM473.5 0h1.6l-38.4 40h-1.6zm-5.1 0h1.6l-38.4 40H430zM463.5 0h1.6l-38.4 40h-1.6zm-5.1 0h1.6l-38.4 40H420zM453.5 0h1.6l-38.4 40h-1.6zm-5.1 0h1.6l-38.4 40H410zM443.5 0h1.6l-38.4 40h-1.6zm-5.1 0h1.6l-38.4 40H400zM433.5 0h1.6l-38.4 40h-1.6zm-5.1 0h1.6l-38.4 40H390zM423.5 0h1.6l-38.4 40h-1.6zm-5.1 0h1.6l-38.4 40H380zM413.5 0h1.6l-38.4 40h-1.6zm-5.1 0h1.6l-38.4 40H370zM403.5 0h1.6l-38.4 40h-1.6zm-5.1 0h1.6l-38.4 40H360zM393.5 0h1.6l-38.4 40h-1.6zm-5.1 0h1.6l-38.4 40H350zM383.5 0h1.6l-38.4 40h-1.6zm-5.1 0h1.6l-38.4 40H340zM373.5 0h1.6l-38.4 40h-1.6zm-5.1 0h1.6l-38.4 40H330zM363.5 0h1.6l-38.4 40h-1.6zm-5.1 0h1.6l-38.4 40H320zM353.5 0h1.6l-38.4 40h-1.6zm-5.1 0h1.6l-38.4 40H310zM343.5 0h1.6l-38.4 40h-1.6zm-5.1 0h1.6l-38.4 40H300zM333.5 0h1.6l-38.4 40h-1.6zm-5.1 0h1.6l-38.4 40H290zM323.5 0h1.6l-38.4 40h-1.6zm-5.1 0h1.6l-38.4 40H280zM313.5 0h1.6l-38.4 40h-1.6zm-5.1 0h1.6l-38.4 40H270zM303.5 0h1.6l-38.4 40h-1.6zm-5.1 0h1.6l-38.4 40H260zM293.5 0h1.6l-38.4 40h-1.6zm-5.1 0h1.6l-38.4 40H250zM283.5 0h1.6l-38.4 40h-1.6zm-5.1 0h1.6l-38.4 40H240zM273.5 0h1.6l-38.4 40h-1.6zm-5.1 0h1.6l-38.4 40H230zM263.5 0h1.6l-38.4 40h-1.6zm-5.1 0h1.6l-38.4 40H220zM253.5 0h1.6l-38.4 40h-1.6zm-5.1 0h1.6l-38.4 40H210zM243.5 0h1.6l-38.4 40h-1.6zm-5.1 0h1.6l-38.4 40H200zM233.5 0h1.6l-38.4 40h-1.6zm-5.1 0h1.6l-38.4 40H190zM223.5 0h1.6l-38.4 40h-1.6zm-5.1 0h1.6l-38.4 40H180zM213.5 0h1.6l-38.4 40h-1.6zm-5.1 0h1.6l-38.4 40H170zM203.5 0h1.6l-38.4 40h-1.6zm-5.1 0h1.6l-38.4 40H160zM193.5 0h1.6l-38.4 40h-1.6zm-5.1 0h1.6l-38.4 40H150zM183.5 0h1.6l-38.4 40h-1.6zm-5.1 0h1.6l-38.4 40H140zM173.5 0h1.6l-38.4 40h-1.6zm-5.1 0h1.6l-38.4 40H130zM163.5 0h1.6l-38.4 40h-1.6zm-5.1 0h1.6l-38.4 40H120zM153.5 0h1.6l-38.4 40h-1.6zm-5.1 0h1.6l-38.4 40H110zM143.5 0h1.6l-38.4 40h-1.6zm-5.1 0h1.6l-38.4 40H100zM133.5 0h1.6L96.7 40h-1.6zm-5.1 0h1.6L91.6 40H90zM123.5 0h1.6L86.7 40h-1.6zm-5.1 0h1.6L81.6 40H80zM113.5 0h1.6L76.7 40h-1.6zm-5.1 0h1.6L71.6 40H70zM103.5 0h1.6L66.7 40h-1.6zm-5.1 0h1.6L61.6 40H60zM93.5 0h1.6L56.7 40h-1.6zm-5.1 0H90L51.6 40H50zM83.5 0h1.6L46.7 40h-1.6zm-5.1 0H80L41.6 40H40zM73.5 0h1.6L36.7 40h-1.6zm-5.1 0H70L31.6 40H30zM63.5 0h1.6L26.7 40h-1.6zm-5.1 0H60L21.6 40H20zM53.5 0h1.6L16.7 40h-1.6zm-5.1 0H50L11.6 40H10zM43.5 0h1.6L6.7 40H5.1zm-5.1 0H40L1.6 40H0z"/></g></g></svg>